<?xml version="1.0" encoding="UTF-8"?>
<svg width="353px" height="512px" viewBox="0 0 353 512" version="1.1" xmlns="http://www.w3.org/2000/svg" xmlns:xlink="http://www.w3.org/1999/xlink">
    <!-- Generator: Sketch 61.2 (89653) - https://sketch.com -->
    <title>Shape</title>
    <desc>Created with Sketch.</desc>
    <g id="Page-1" stroke="none" stroke-width="1" fill="none" fill-rule="evenodd">
        <g id="question-solid" fill="#FFFFFF" fill-rule="nonzero">
            <path d="M177.021,0 C97.202,0 45.503,32.703 4.914,91.026 C-2.449,101.606 -0.179,116.112 10.092,123.9 L53.23,156.609 C63.603,164.474 78.362,162.635 86.483,152.461 C111.532,121.08 130.113,103.012 169.24,103.012 C200.004,103.012 238.056,122.811 238.056,152.643 C238.056,175.195 219.439,186.777 189.063,203.807 C153.64,223.667 106.764,248.383 106.764,310.212 L106.764,320 C106.764,333.255 117.509,344 130.764,344 L203.235,344 C216.49,344 227.235,333.255 227.235,320 L227.235,314.227 C227.235,271.367 352.503,269.582 352.503,153.6 C352.503,66.256 261.902,0 177.021,0 Z M167,373.459 C128.804,373.459 97.729,404.534 97.729,442.73 C97.729,480.925 128.804,512 167,512 C205.196,512 236.271,480.925 236.271,442.729 C236.271,404.533 205.196,373.459 167,373.459 Z" id="Shape"></path>
        </g>
    </g>
</svg>